<?xml version="1.0" encoding="UTF-8" standalone="no"?>
<!DOCTYPE svg PUBLIC "-//W3C//DTD SVG 1.1//EN" "http://www.w3.org/Graphics/SVG/1.1/DTD/svg11.dtd">
<svg width="100%" height="100%" viewBox="0 0 300 200" version="1.1" xmlns="http://www.w3.org/2000/svg" xmlns:xlink="http://www.w3.org/1999/xlink" xml:space="preserve" xmlns:serif="http://www.serif.com/" style="fill-rule:evenodd;clip-rule:evenodd;stroke-linejoin:round;stroke-miterlimit:2;">
    <g transform="matrix(0.0845267,0,0,0.762162,9.92862,51.7835)">
        <path d="M3302.46,174.788L36.36,174.788C33.093,174.788 30.445,174.494 30.445,174.131L30.445,24.603C30.445,24.24 33.093,23.947 36.36,23.947L3302.46,23.947C3305.73,23.947 3308.38,24.24 3308.38,24.603L3308.38,174.131C3308.38,174.494 3305.73,174.788 3302.46,174.788ZM415.62,25.259C396.421,25.259 375.94,25.259 356.726,25.259L356.726,121.39L275.592,121.39L275.592,173.475C284.985,173.475 496.755,173.475 496.755,173.475L496.755,121.39L415.62,121.39L415.62,25.259ZM182.626,25.259C119.399,25.259 42.276,25.259 42.276,25.259L42.276,173.475C42.276,173.475 254.046,173.475 263.439,173.475L263.439,121.39L182.626,121.39L182.626,25.259ZM508.585,173.475C508.585,173.475 730.071,173.475 730.071,173.475L730.071,25.259C730.071,25.259 652.947,25.259 589.72,25.259L589.72,121.39L508.585,121.39L508.585,173.475ZM1809.95,25.259C1747.86,25.259 1675.16,25.259 1675.16,25.259L1675.16,173.475C1675.16,173.475 1896.65,173.475 1896.65,173.475L1896.65,121.39L1809.95,121.39L1809.95,25.259ZM1908.48,121.39L1908.48,173.475C1908.48,173.475 2129.97,173.475 2129.97,173.475L2129.97,121.39L2042.95,121.39L2042.95,25.259C2023.49,25.259 2003.01,25.259 1984.05,25.259L1984.05,121.39L1908.48,121.39ZM2141.8,121.39L2141.8,173.475C2141.8,173.475 2363.28,173.475 2363.28,173.475L2363.28,25.259C2363.28,25.259 2281.26,25.259 2217.05,25.259L2217.05,121.39L2141.8,121.39ZM874.532,25.259C812.923,25.259 741.901,25.259 741.901,25.259L741.901,173.475C741.901,173.475 963.387,173.475 963.387,173.475L963.387,121.39L874.532,121.39L874.532,25.259ZM975.217,121.39L975.217,173.475C975.217,173.475 1196.7,173.475 1196.7,173.475L1196.7,121.39L1119.3,121.39L1119.3,25.259C1096.36,25.259 1071.31,25.259 1048.63,25.259L1048.63,121.39L975.217,121.39ZM1208.53,121.39L1208.53,173.475C1208.53,173.475 1430.02,173.475 1430.02,173.475L1430.02,121.39L1353.35,121.39L1353.35,25.259C1334,25.259 1313.12,25.259 1293.4,25.259L1293.4,121.39L1208.53,121.39ZM1441.85,121.39L1441.85,173.475C1441.85,173.475 1663.33,173.475 1663.33,173.475L1663.33,25.259C1663.33,25.259 1589.78,25.259 1527.45,25.259L1527.45,121.39L1441.85,121.39ZM2516.54,25.259C2453.12,25.259 2375.11,25.259 2375.11,25.259L2375.11,173.475C2375.11,173.475 2596.6,173.475 2596.6,173.475L2596.6,121.39L2516.54,121.39L2516.54,25.259ZM2608.43,121.39L2608.43,173.475C2608.43,173.475 2829.91,173.475 2829.91,173.475L2829.91,121.39L2753.13,121.39L2753.13,25.259C2732.94,25.259 2711.09,25.259 2690.64,25.259L2690.64,121.39L2608.43,121.39ZM2841.74,121.39L2841.74,173.475C2841.74,173.475 3063.23,173.475 3063.23,173.475L3063.23,121.39L2983.26,121.39L2983.26,25.259C2965.05,25.259 2945.65,25.259 2927.23,25.259L2927.23,121.39L2841.74,121.39ZM3075.06,121.39L3075.06,173.475C3075.06,173.475 3296.55,173.475 3296.55,173.475L3296.55,25.259C3296.55,25.259 3220.36,25.259 3157.36,25.259L3157.36,121.39L3075.06,121.39Z" style="fill:white;"/>
    </g>
    <g transform="matrix(1,0,0,1,-0.268128,-2.82128)">
        <g transform="matrix(8.43567,0,0,8.43567,144.641,178.069)">
        </g>
        <text x="20.796px" y="178.069px" style="font-family:'ArialMT', 'Arial', sans-serif;font-size:8.436px;fill:rgb(32,255,224);">Z<tspan x="39.715px 59.109px 78.968px 98.362px 117.755px 137.614px " y="178.069px 178.069px 178.069px 178.069px 178.069px 178.069px ">XCVBNM</tspan></text>
    </g>
    <g transform="matrix(1,0,0,1,9.05361,-40.1565)">
        <g transform="matrix(8.43567,0,0,8.43567,46.2811,178.069)">
        </g>
        <text x="20.796px" y="178.069px" style="font-family:'ArialMT', 'Arial', sans-serif;font-size:8.436px;fill:rgb(0,210,181);">S<tspan x="40.189px " y="178.069px ">D</tspan></text>
    </g>
    <g transform="matrix(1,0,0,1,67.7345,-40.1565)">
        <g transform="matrix(8.43567,0,0,8.43567,65.201,178.069)">
        </g>
        <text x="20.796px" y="178.069px" style="font-family:'ArialMT', 'Arial', sans-serif;font-size:8.436px;fill:rgb(0,210,181);">G<tspan x="41.124px 60.983px " y="178.069px 178.069px ">HJ</tspan></text>
    </g>
    <g transform="matrix(1,0,0,1,206.71,-40.1565)">
        <g transform="matrix(8.43567,0,0,8.43567,65.8459,178.069)">
        </g>
        <text x="20.796px" y="178.069px" style="font-family:'ArialMT', 'Arial', sans-serif;font-size:8.436px;fill:rgb(255,0,212);">8<tspan x="40.975px 61.154px " y="178.069px 178.069px ">90</tspan></text>
    </g>
    <g transform="matrix(1,0,0,1,147.331,-40.2348)">
        <g transform="matrix(8.43567,0,0,8.43567,44.688,178.069)">
        </g>
        <text x="20.796px" y="178.069px" style="font-family:'ArialMT', 'Arial', sans-serif;font-size:8.436px;fill:rgb(255,0,212);">5<tspan x="39.996px " y="178.069px ">6</tspan></text>
    </g>
    <g transform="matrix(1,0,0,1,136.526,-2.82128)">
        <g transform="matrix(8.43567,0,0,8.43567,145.194,178.069)">
        </g>
        <text x="20.796px" y="178.069px" style="font-family:'ArialMT', 'Arial', sans-serif;font-size:8.436px;fill:rgb(236,74,208);">R<tspan x="41.245px 60.907px 81.043px 101.644px 118.497px 139.568px " y="178.069px 178.069px 178.069px 178.069px 178.069px 178.069px ">TYUIOP</tspan></text>
    </g>
    <g>
        <g transform="matrix(1,0,0,1,-30.1927,18.4066)">
            <circle cx="47.296" cy="28.9" r="4.602" style="fill:rgb(0,210,181);"/>
        </g>
        <g transform="matrix(0.778538,0,0,0.778538,1.72492,9.93856)">
            <g transform="matrix(10,0,0,10,119.751,51.908)">
            </g>
            <text x="29.311px" y="51.908px" style="font-family:'SpaceGrotesk-Light', 'Space Grotesk';font-weight:300;font-size:10px;fill:white;">Pla<tspan x="43.291px " y="51.908px ">y</tspan> with le<tspan x="83.871px 88.111px " y="51.908px 51.908px ">ft</tspan> hand</text>
        </g>
    </g>
    <g transform="matrix(1,0,0,1,190.555,0)">
        <g transform="matrix(1,0,0,1,-30.1927,18.4066)">
            <circle cx="47.296" cy="28.9" r="4.602" style="fill:rgb(255,0,212);"/>
        </g>
        <g transform="matrix(0.778538,0,0,0.778538,1.72492,9.93856)">
            <g transform="matrix(10,0,0,10,125.851,51.908)">
            </g>
            <text x="29.311px" y="51.908px" style="font-family:'SpaceGrotesk-Light', 'Space Grotesk';font-weight:300;font-size:10px;fill:white;">Pla<tspan x="43.291px " y="51.908px ">y</tspan> with righ<tspan x="94.211px " y="51.908px ">t</tspan> hand</text>
        </g>
    </g>
</svg>
